<?xml version="1.0" encoding="utf-8"?>
<!-- Generator: Adobe Illustrator 27.5.0, SVG Export Plug-In . SVG Version: 6.00 Build 0)  -->
<svg version="1.1" id="Capa_1" xmlns="http://www.w3.org/2000/svg" xmlns:xlink="http://www.w3.org/1999/xlink" x="0px" y="0px"
	 viewBox="0 0 297.981 425.197" style="enable-background:new 0 0 297.981 425.197;" xml:space="preserve">
<rect x="0" y="0" style="fill:#119AAF;" width="297.981" height="425.197"/>
<g>
	<g>
		<g>
			<polygon style="fill:#E9E9E9;" points="159.894,232.081 148.98,239.365 138.067,232.081 118.45,239.365 118.45,331.685 
				179.51,331.685 179.51,239.365 			"/>
			<polygon style="fill:#FAC290;" points="159.894,232.081 148.98,239.365 138.067,232.081 138.067,218.72 159.894,218.72 			"/>
			<g>
				<path style="fill:#FAC290;" d="M196.496,171.61c0,2.458-1.992,4.451-4.454,4.451c-2.459,0-4.452-1.993-4.452-4.451
					c0-2.46,1.993-4.453,4.452-4.453C194.504,167.157,196.496,169.15,196.496,171.61z"/>
				<path style="fill:#FAC290;" d="M110.369,171.61c0,2.458-1.992,4.451-4.452,4.451c-2.459,0-4.453-1.993-4.453-4.451
					c0-2.46,1.994-4.453,4.453-4.453C108.377,167.157,110.369,169.15,110.369,171.61z"/>
			</g>
			<path style="fill:#FAC290;" d="M148.588,121.655c-31.489,0-44.174,19.079-44.174,27.104c0,21.831,1.869,30.587,9.407,51.414
				c1.518,4.189,4.996,14.669,17.089,18.891c9.008,3.146,26.415,3.508,35.355,0c11.891-4.664,15.572-14.702,17.09-18.891
				c7.539-20.827,9.975-27.77,9.975-49.6C193.33,142.548,178.631,121.655,148.588,121.655z"/>
			<path style="fill:#EDEDED;" d="M138.067,220.752v4.451c6.82,1.053,15.144,1.114,21.826-0.017v-4.452
				C153.211,221.863,144.888,221.803,138.067,220.752z"/>
			<g>
				<path style="fill:#4C190A;" d="M169.575,176.969c0,1.737-1.407,3.145-3.145,3.145c-1.734,0-3.143-1.408-3.143-3.145
					c0-1.736,1.409-3.144,3.143-3.144C168.168,173.825,169.575,175.232,169.575,176.969z"/>
				<path style="fill:#4C190A;" d="M133.89,176.969c0,1.737-1.405,3.145-3.143,3.145c-1.736,0-3.144-1.408-3.144-3.145
					c0-1.736,1.407-3.144,3.144-3.144C132.484,173.825,133.89,175.232,133.89,176.969z"/>
			</g>
			<polyline style="fill:none;stroke:#DADADA;stroke-width:0.555;stroke-miterlimit:10;" points="151.435,190.857 145.744,190.857 
				148.782,163.082 			"/>
			<path style="fill:#FFFFFF;" d="M130.654,199.803c3.066,6.853,9.939,11.632,17.936,11.632c7.995,0,14.869-4.78,17.935-11.632
				H130.654z"/>
			<path style="fill:#4C190A;" d="M192.282,169.512c0.737-5.292,1.048-11.172,1.048-18.938c0-3.716-3.154-10.182-9.51-16.059
				c-5.781,0.929-16.55,4.275-13.396,16.009C170.425,150.523,175.201,165.992,192.282,169.512z"/>
			<path style="fill:#692518;" d="M147.05,119.344c-31.491,0-44.174,19.079-44.174,27.105c0,4.203-0.788,10.254,1.773,13.642
				c60.665,0,85.009-18.771,85.038-18.795C183.642,132.288,168.484,119.344,147.05,119.344z"/>
			<path style="fill:#692518;" d="M109.257,160.057l0.051,17.741l-2.238,0.695c0,0-4.226-14.196-4.309-25.126L109.257,160.057z"/>
			<path style="fill:#4C190A;" d="M186.681,159.742l1.556,18.056l2.238,0.695c0,0,3.526-10.206,2.855-24.721L186.681,159.742z"/>
			<g>
				<path style="fill:#4C190A;" d="M175.684,168.605v-1.101c0-0.992-0.805-1.799-1.799-1.799h-9.096
					c-0.994,0-1.801,0.807-1.801,1.799v1.101H175.684z"/>
				<path style="fill:#4C190A;" d="M134.191,168.605v-1.101c0-0.992-0.805-1.799-1.799-1.799h-9.099c-0.995,0-1.8,0.807-1.8,1.799
					v1.101H134.191z"/>
			</g>
			<g>
				<rect x="112.345" y="75.823" style="fill:#D9E5EC;" width="73.271" height="63.896"/>
				<path style="fill:#DADADA;" d="M112.345,102.444c6.463-0.289,12.188-3.411,15.962-8.154c5.408,5.072,12.676,8.185,20.673,8.185
					c7.999,0,15.267-3.112,20.673-8.185c3.776,4.744,9.5,7.865,15.964,8.154V75.823h-73.271V102.444z"/>
				<path style="fill:#D9E5EC;" d="M186.603,47.283c-3.385,0-6.587,0.777-9.44,2.162c-4.382-11.291-15.343-19.3-28.183-19.3
					c-12.839,0-23.8,8.01-28.181,19.3c-2.854-1.385-6.057-2.162-9.442-2.162c-11.96,0-21.657,9.696-21.657,21.657
					c0,11.961,9.697,21.659,21.657,21.659c6.868,0,12.983-3.2,16.95-8.185c5.408,5.073,12.676,8.185,20.673,8.185
					c7.999,0,15.267-3.112,20.673-8.185c3.969,4.985,10.084,8.185,16.95,8.185c11.962,0,21.658-9.697,21.658-21.659
					C208.261,56.979,198.564,47.283,186.603,47.283z"/>
			</g>
			<g>
				<polygon style="fill:#FFFFFF;" points="148.98,239.365 159.894,232.081 165.814,236.463 153.467,249.791 				"/>
				<polygon style="fill:#FFFFFF;" points="148.98,239.365 138.067,232.081 132.146,236.463 144.494,249.791 				"/>
			</g>
		</g>
		<polygon style="fill:#282727;" points="173.48,255.129 125.5,255.129 118.34,294.521 118.34,332.016 180.641,332.016 
			180.641,294.521 		"/>
		<g>
			<polygon style="fill:#282727;" points="169.673,235.711 163.686,261.402 167.918,262.76 173.966,237.307 			"/>
			<polygon style="fill:#282727;" points="130.983,262.733 135.226,261.427 129.202,235.372 125.297,236.823 			"/>
		</g>
	</g>
	<g>
		<g>
			<g>
				<g>
					<path style="fill:#95C11F;" d="M106.419,325.462c0.65,1.297,1.525,2.175,2.504,2.713h5.5c2.241-1.068,3.935-3.304,3.646-5.883
						c0,0,2.054-11.11,10.691-18.949c8.639-7.835,11.065-16.382,9.159-21.143c-1.903-4.764-5.079,1.383-7.331,0.615
						c-2.252-0.767-4.27-3.606-2.564-7.715c1.705-4.109-4.022-7.182-8.332-3.128c-4.308,4.055-2.007,8.647-6.102,8.719
						c-4.096,0.07-3.68-9.264-9.673-8.348c-5.994,0.913-9.475,6.676-6.392,12.433c3.08,5.759-3.243,4.923-6.568,2.193
						c-3.322-2.727-5.454-6.924-10.463-3.085c-5.011,3.84-5.854,10.065,0.181,13.522c6.035,3.458-2.485,4.312-4.727,3.817
						c-2.242-0.496-7.569,1.183-4.604,5.583C74.315,311.206,103.132,318.9,106.419,325.462z"/>
					<g>
						<path style="fill:#739519;" d="M80.615,283.437c5.008-3.841,7.14,0.356,10.462,3.085c2.563,2.104,6.901,3.077,7.35,0.78
							c-1.417,0.877-4.62-0.084-6.678-1.772c-3.322-2.731-5.453-6.927-10.463-3.087c-1.247,0.956-2.236,2.06-2.924,3.232
							C78.974,284.873,79.727,284.117,80.615,283.437z"/>
						<path style="fill:#739519;" d="M104.036,271.895c5.992-0.915,5.577,8.418,9.674,8.348c1.479-0.026,2.123-0.643,2.547-1.608
							c-0.419,0.377-1,0.6-1.875,0.614c-4.096,0.071-3.681-9.261-9.674-8.347c-2.927,0.446-5.253,2.052-6.508,4.245
							C99.533,273.468,101.571,272.271,104.036,271.895z"/>
						<path style="fill:#739519;" d="M76.068,300.775c1.696,0.374,6.987-0.024,6.84-1.741c-1.457,0.865-4.868,1.034-6.169,0.746
							c-1.551-0.343-4.578,0.358-5.313,2.277C72.625,300.897,74.822,300.5,76.068,300.775z"/>
						<path style="fill:#739519;" d="M138.712,280.756c-1.905-4.763-5.079,1.384-7.332,0.618c-2.253-0.768-4.27-3.607-2.563-7.715
							c1.705-4.109-4.023-7.183-8.333-3.128c-0.747,0.704-1.292,1.422-1.709,2.131c0.296-0.381,0.639-0.761,1.038-1.138
							c4.309-4.056,10.036-0.981,8.332,3.128c-1.707,4.11,0.309,6.948,2.562,7.715c2.253,0.768,5.429-5.378,7.331-0.616
							c1.339,3.345,0.536,8.556-3.05,14.077C139.145,289.942,140.129,284.302,138.712,280.756z"/>
					</g>
					<path style="fill:#D7C859;" d="M85.633,314.631c8.691,3.55,18.545,7.574,20.298,11.074c0.546,1.089,1.234,1.894,1.996,2.47
						h2.521c-1.487-0.337-2.739-1.353-3.543-2.958c-1.936-3.866-11.557-7.795-20.861-11.598c-6.704-2.737-13.035-5.325-14.246-7.116
						c-0.733-1.092-0.955-2.04-0.653-2.818c0.325-0.835,1.306-1.52,2.623-1.835c0.744-0.18,1.516-0.215,2.064-0.094
						c1.022,0.226,3.224,0.206,4.992-0.219c1.545-0.371,2.388-0.974,2.505-1.797c0.13-0.906-0.626-1.799-2.383-2.805
						c-2.436-1.395-3.799-3.307-3.947-5.527c-0.166-2.475,1.265-5.125,3.827-7.089c0.923-0.706,1.75-1.141,2.532-1.327
						c2.115-0.509,3.627,0.964,5.379,2.673c0.595,0.58,1.208,1.18,1.874,1.728c1.99,1.633,4.804,2.549,6.55,2.128v0.001
						c0.737-0.177,1.267-0.589,1.536-1.187c0.409-0.91,0.177-2.194-0.691-3.814c-1.263-2.361-1.424-4.859-0.45-7.028
						c1.092-2.435,3.501-4.162,6.443-4.611c2.941-0.448,4.115,1.86,5.359,4.304c1.024,2.01,2.081,4.087,4.242,4.05
						c0.363-0.006,0.685-0.045,0.979-0.116c1.738-0.417,2.156-1.898,2.599-3.466c0.438-1.556,0.98-3.488,2.889-5.284
						c0.875-0.825,1.841-1.366,2.869-1.611c1.632-0.395,3.28,0.045,4.194,1.115c0.713,0.835,0.851,1.907,0.39,3.017
						c-1.069,2.576-0.679,4.475-0.164,5.612c0.606,1.343,1.721,2.373,3.057,2.829c0.341,0.116,0.716,0.125,1.112,0.03
						c0.763-0.182,1.527-0.738,2.268-1.275c0.673-0.488,1.367-0.992,1.952-1.132c0.322-0.078,0.995-0.238,1.67,1.446
						c1.746,4.365-0.332,12.655-9.02,20.538c-8.677,7.871-10.777,18.793-10.863,19.253l-0.006,0.16
						c0.319,2.85-2.086,5.178-4.595,5.781c0,0,0,0-0.002,0c-0.066,0.016-0.132,0.026-0.198,0.04h2.805
						c1.904-1.228,3.332-3.308,3.083-5.857c0.2-0.974,2.476-11.284,10.508-18.571c9.073-8.23,11.182-17.043,9.301-21.749
						c-0.68-1.699-1.668-2.405-2.938-2.101c-0.797,0.19-1.578,0.758-2.337,1.307c-0.884,0.644-1.831,1.286-2.389,1.096
						c-1.052-0.356-1.932-1.175-2.414-2.243c-0.426-0.943-0.74-2.531,0.178-4.745c0.618-1.488,0.41-2.999-0.567-4.144
						c-1.181-1.38-3.252-1.957-5.28-1.47c-1.214,0.292-2.343,0.924-3.358,1.878c-2.129,2.005-2.718,4.099-3.192,5.784
						c-0.463,1.645-0.732,2.445-1.801,2.702c-0.217,0.052-0.467,0.08-0.746,0.084c-1.481,0.026-2.302-1.586-3.252-3.454
						c-1.237-2.431-2.776-5.453-6.495-4.887c-3.313,0.506-6.031,2.469-7.274,5.242c-1.114,2.486-0.942,5.323,0.485,7.989
						c0.68,1.27,0.913,2.283,0.657,2.853c-0.128,0.287-0.39,0.475-0.798,0.574c-0.001,0-0.001,0-0.001,0
						c-1.396,0.336-3.907-0.523-5.599-1.911c-0.631-0.52-1.229-1.1-1.808-1.665c-1.815-1.771-3.694-3.604-6.395-2.955
						c-0.935,0.224-1.896,0.723-2.939,1.524c-2.853,2.186-4.443,5.187-4.253,8.026c0.172,2.564,1.768,4.838,4.493,6.4
						c1.879,1.076,1.855,1.646,1.846,1.706c-0.037,0.251-0.568,0.625-1.681,0.892c-1.544,0.372-3.613,0.411-4.503,0.213
						c-0.712-0.157-1.642-0.122-2.553,0.097c-1.689,0.406-2.924,1.319-3.384,2.503c-0.439,1.131-0.184,2.417,0.765,3.821
						C72.29,309.178,78.473,311.705,85.633,314.631z"/>
					<path style="fill:#DADADA;" d="M106.419,325.462c0.65,1.297,1.525,2.175,2.504,2.713h5.5c2.241-1.068,3.935-3.304,3.646-5.883
						c0,0,2.054-11.11,10.691-18.949c8.639-7.835,11.065-16.382,9.159-21.143c-1.721-4.311-4.485,0.313-6.664,0.663
						c-0.328,13.86-16.179,26.6-22.09,31.124c-3.533,2.704-5.075,5.989-5.745,8.484
						C104.871,323.484,105.929,324.484,106.419,325.462z"/>
					<path style="fill:#DADADA;" d="M114.768,321.329c0,0,2.465-13.063,11.16-20.618c8.693-7.556,12.143-15.952,8.213-16.269
						c-3.931-0.316-8.072,0.817-8.26-4.041c-0.186-4.86,0.057-7.931-3.09-7.314c-3.145,0.614-2.337,10.089-9.261,9.861
						c-6.922-0.228-5.709-8.021-11.075-4.978c-5.366,3.043,0.191,11.587-3.295,13.547c-3.49,1.959-13.775-6.149-16.751-2.491
						c-2.974,3.658,5.452,9.271,3.058,12.718c-2.395,3.45-8.661,0.121-10.242,3.163c-1.58,3.042,9.29,6.876,16.278,8.84
						c6.989,1.965,15.286,7.047,16.765,9.986C109.744,326.672,115.27,326.044,114.768,321.329z"/>
					<g>
						<path style="fill:#5B7813;" d="M112.135,324.472c-0.613-3.814-1.774-7.507-3.617-10.793c-0.936-1.631-2.025-3.167-3.327-4.497
							c-1.275-1.345-2.766-2.467-4.372-3.48c-3.163-2.058-6.743-3.72-9.755-6.307c-1.509-1.283-2.849-2.749-3.951-4.376
							c-1.074-1.643-1.965-3.398-2.525-5.253c1.701,3.479,4.214,6.439,7.213,8.704c3.008,2.281,6.524,3.843,9.839,5.958
							c0.809,0.524,1.659,1.124,2.403,1.726c0.79,0.632,1.525,1.306,2.195,2.051c1.335,1.485,2.467,3.145,3.324,4.927
							C111.317,316.68,112.106,320.611,112.135,324.472z"/>
					</g>
					<g>
						<g>
							<path style="fill:#5B7813;" d="M134.173,286.626c-0.987,3.414-2.744,6.613-4.967,9.434c-1.104,1.421-2.364,2.723-3.711,3.927
								c-0.681,0.613-1.393,1.136-2.07,1.694c-0.632,0.543-1.258,1.128-1.838,1.755c-2.35,2.481-4.122,5.5-5.404,8.712
								c-0.637,1.611-1.154,3.277-1.53,4.981c-0.405,1.702-0.618,3.446-0.621,5.219c-0.592-3.518-0.06-7.184,1.037-10.6
								c1.104-3.43,2.917-6.674,5.414-9.35c0.63-0.662,1.303-1.278,2.02-1.875c0.698-0.552,1.406-1.081,2.062-1.625
								c1.34-1.09,2.569-2.315,3.739-3.597c1.156-1.295,2.236-2.668,3.217-4.118C132.525,289.748,133.402,288.221,134.173,286.626z"
								/>
						</g>
					</g>
					<g>
						<g>
							<path style="fill:#5B7813;" d="M121.968,277.235c0.466,3.215,0.608,6.488,0.314,9.759c-0.136,1.638-0.42,3.272-0.89,4.889
								c-0.242,0.807-0.559,1.601-0.97,2.37c-0.207,0.384-0.441,0.759-0.713,1.118l-0.765,0.961
								c-2.005,2.47-3.758,5.119-4.838,8.073c-1.078,2.949-1.455,6.164-1.286,9.406c-0.754-3.15-0.794-6.565,0.161-9.772
								c0.913-3.225,2.74-6.102,4.781-8.654l0.76-0.926c0.221-0.282,0.421-0.591,0.603-0.916c0.366-0.65,0.647-1.366,0.904-2.097
								c0.51-1.468,0.816-3.028,1.084-4.597C121.593,283.697,121.849,280.477,121.968,277.235z"/>
						</g>
					</g>
					<g>
						<g>
							<path style="fill:#5B7813;" d="M104.097,281.011c-0.034,2.561,0.207,5.08,0.737,7.509c0.285,1.21,0.614,2.402,1.082,3.538
								c0.434,1.152,1.033,2.188,1.641,3.362c1.141,2.311,2.141,4.714,2.768,7.242c0.316,1.262,0.53,2.557,0.583,3.864
								c0.035,1.3-0.084,2.647-0.618,3.827c0.205-1.269,0.11-2.524-0.123-3.749c-0.22-1.227-0.579-2.425-0.978-3.607
								c-0.828-2.358-1.852-4.654-2.988-6.898c-0.536-1.1-1.209-2.284-1.627-3.541c-0.423-1.252-0.742-2.534-0.901-3.833
								C103.34,286.136,103.438,283.499,104.097,281.011z"/>
						</g>
					</g>
					<g>
						<g>
							<path style="fill:#5B7813;" d="M80.043,305.712c1.156,0.899,2.405,1.64,3.728,2.196c1.307,0.583,2.673,1.002,4.056,1.286
								c0.694,0.136,1.393,0.232,2.093,0.304c0.699,0.059,1.481,0.129,2.211,0.243c1.479,0.233,2.929,0.599,4.353,1.037
								c2.829,0.927,5.567,2.187,7.99,3.958c1.209,0.88,2.334,1.901,3.258,3.092c0.887,1.201,1.625,2.599,1.706,4.083
								c-0.422-1.409-1.245-2.61-2.267-3.594c-0.999-1.007-2.156-1.846-3.36-2.6c-2.427-1.484-5.069-2.631-7.789-3.495
								c-1.356-0.446-2.741-0.801-4.137-1.069c-0.707-0.144-1.375-0.237-2.125-0.338c-0.748-0.104-1.487-0.266-2.211-0.474
								C84.656,309.527,81.954,307.955,80.043,305.712z"/>
						</g>
					</g>
					<g>
						<g>
							<path style="fill:#5B7813;" d="M101.536,286.485l1.545,1.899c0.261,0.306,0.526,0.605,0.8,0.879
								c0.272,0.263,0.581,0.53,0.836,0.618l-0.456,0.195c0.444-0.935,1.009-1.771,1.687-2.536c0.677-0.75,1.516-1.414,2.481-1.715
								c-0.812,0.587-1.426,1.336-1.996,2.109c-0.563,0.775-1.066,1.618-1.498,2.457l-0.161,0.314l-0.295-0.119
								c-0.515-0.207-0.809-0.533-1.097-0.854c-0.284-0.323-0.525-0.667-0.748-1.02
								C102.188,288.007,101.824,287.262,101.536,286.485z"/>
						</g>
					</g>
					<g>
						<g>
							<path style="fill:#5B7813;" d="M102.636,293.602c1.244,0.678,2.545,1.079,3.837,1.02l-0.359,0.374
								c0.007-0.432,0.084-0.811,0.189-1.207c0.121-0.386,0.283-0.767,0.521-1.105c0.236-0.338,0.545-0.635,0.908-0.827
								c0.367-0.184,0.765-0.281,1.15-0.259c-0.354,0.153-0.683,0.317-0.931,0.573c-0.26,0.234-0.455,0.521-0.609,0.825
								c-0.297,0.61-0.446,1.335-0.477,2.003l-0.017,0.377l-0.342-0.003c-0.375-0.003-0.755-0.006-1.12-0.096
								c-0.366-0.076-0.722-0.188-1.054-0.349c-0.335-0.152-0.648-0.344-0.936-0.565
								C103.12,294.131,102.845,293.896,102.636,293.602z"/>
						</g>
					</g>
					<g>
						<g>
							<path style="fill:#5B7813;" d="M104.621,298.358c1.252-0.069,2.465,0.036,3.636,0.007l-0.364,0.322
								c0.067-0.362,0.17-0.663,0.302-0.975c0.145-0.301,0.302-0.599,0.513-0.859c0.399-0.534,0.97-0.944,1.588-1.121
								c-0.47,0.439-0.814,0.929-1.089,1.444c-0.128,0.263-0.255,0.525-0.343,0.803c-0.098,0.267-0.182,0.566-0.223,0.818
								l-0.053,0.319l-0.312,0.004c-0.643,0.007-1.265-0.062-1.875-0.192C105.792,298.806,105.195,298.616,104.621,298.358z"/>
						</g>
					</g>
					<g>
						<g>
							<path style="fill:#5B7813;" d="M106.608,303.345c0.591-0.119,1.191-0.158,1.788-0.117c0.598,0.033,1.193,0.137,1.782,0.332
								l-0.493,0.279c0.087-0.327,0.189-0.593,0.321-0.869c0.138-0.267,0.281-0.53,0.461-0.769c0.344-0.485,0.782-0.899,1.279-1.213
								c-0.131,0.268-0.288,0.502-0.404,0.763c-0.135,0.247-0.249,0.501-0.369,0.748c-0.109,0.252-0.223,0.499-0.312,0.754
								c-0.093,0.246-0.19,0.517-0.237,0.743l-0.086,0.417l-0.407-0.138C108.886,303.922,107.751,303.713,106.608,303.345z"/>
						</g>
					</g>
					<g>
						<g>
							<path style="fill:#5B7813;" d="M119.598,282.145c1.024,0.674,1.867,1.554,2.604,2.511l-0.599-0.002
								c0.226-0.309,0.476-0.552,0.735-0.804c0.264-0.244,0.547-0.467,0.847-0.664c0.596-0.397,1.29-0.677,1.998-0.738
								c-0.608,0.361-1.125,0.787-1.621,1.228c-0.489,0.442-0.958,0.936-1.361,1.427l-0.319,0.388l-0.28-0.39
								C120.914,284.146,120.22,283.195,119.598,282.145z"/>
						</g>
					</g>
					<g>
						<g>
							<path style="fill:#5B7813;" d="M118.36,287.395c0.587,0.138,1.151,0.349,1.688,0.617c0.538,0.268,1.055,0.589,1.521,1.01
								l-0.458-0.039c0.342-0.225,0.67-0.361,1.018-0.501c0.343-0.135,0.7-0.23,1.055-0.315c0.715-0.155,1.451-0.198,2.175-0.12
								c-0.342,0.134-0.683,0.23-1.013,0.361c-0.333,0.114-0.661,0.236-0.984,0.359c-0.324,0.121-0.64,0.258-0.953,0.393
								c-0.308,0.134-0.626,0.298-0.89,0.445l-0.26,0.146l-0.198-0.185C120.256,288.811,119.283,288.158,118.36,287.395z"/>
						</g>
					</g>
					<g>
						<g>
							<path style="fill:#5B7813;" d="M117.326,291.45c0.934,0.81,1.716,1.751,2.469,2.66l-0.324-0.133
								c0.718-0.086,1.439-0.129,2.163-0.144c0.724-0.013,1.455,0.025,2.184,0.145c-1.416,0.409-2.837,0.613-4.272,0.74
								l-0.205,0.019l-0.12-0.151c-0.389-0.491-0.724-0.987-1.041-1.51C117.862,292.557,117.575,292.017,117.326,291.45z"/>
						</g>
					</g>
					<g>
						<g>
							<path style="fill:#5B7813;" d="M115.153,294.564c0.324,0.602,0.612,1.21,0.876,1.823l0.393,0.914
								c0.135,0.294,0.261,0.616,0.401,0.85l-0.345-0.181c0.783-0.06,1.564-0.075,2.349-0.05c0.393,0.016,0.785,0.041,1.178,0.087
								c0.392,0.061,0.787,0.106,1.17,0.227c-0.785,0.104-1.552,0.234-2.327,0.305c-0.772,0.078-1.548,0.14-2.322,0.176
								l-0.241,0.011l-0.104-0.193c-0.189-0.35-0.299-0.658-0.405-0.988c-0.107-0.323-0.2-0.65-0.279-0.978
								C115.334,295.912,115.217,295.245,115.153,294.564z"/>
						</g>
					</g>
					<g>
						<g>
							<path style="fill:#5B7813;" d="M112.748,299.86c0.314,0.482,0.592,0.974,0.841,1.473c0.256,0.486,0.486,1.023,0.727,1.444
								l-0.377-0.177c0.609-0.1,1.214-0.142,1.829-0.134c0.611,0.007,1.235,0.088,1.824,0.294c-0.61,0.107-1.192,0.233-1.781,0.322
								c-0.586,0.095-1.177,0.183-1.758,0.258l-0.265,0.034l-0.113-0.212c-0.298-0.559-0.458-1.075-0.613-1.627
								C112.911,300.992,112.804,300.433,112.748,299.86z"/>
						</g>
					</g>
					<g>
						<g>
							<path style="fill:#5B7813;" d="M131.095,288.678c0.2,0.097,0.358,0.235,0.529,0.367c0.159,0.142,0.304,0.299,0.434,0.471
								c0.128,0.173,0.246,0.36,0.334,0.572c0.08,0.213,0.165,0.444,0.154,0.72l-0.46-0.367c0.676-0.142,1.365-0.227,2.101-0.12
								c-0.607,0.429-1.26,0.667-1.926,0.847l-0.435,0.118l-0.026-0.484c-0.015-0.269-0.136-0.63-0.278-0.98
								C131.376,289.467,131.232,289.088,131.095,288.678z"/>
						</g>
					</g>
					<g>
						<g>
							<path style="fill:#5B7813;" d="M128.625,292.036c0.53,0.79,0.844,1.642,1.104,2.509l-0.376-0.275
								c0.925-0.025,1.852,0.012,2.787,0.282c-0.914,0.334-1.837,0.435-2.761,0.474l-0.3,0.012l-0.077-0.287
								C128.768,293.877,128.588,292.987,128.625,292.036z"/>
						</g>
					</g>
					<g>
						<g>
							<path style="fill:#5B7813;" d="M125.384,295.972c0.121,0.574,0.202,1.139,0.245,1.698c0.052,0.549,0.076,1.132,0.162,1.601
								l-0.438-0.279c0.341-0.042,0.571-0.017,0.838,0.031c0.257,0.044,0.503,0.115,0.74,0.207c0.475,0.177,0.91,0.433,1.298,0.753
								c-0.253-0.023-0.489-0.079-0.731-0.105l-0.705-0.101c-0.232-0.027-0.461-0.054-0.684-0.065
								c-0.212-0.006-0.469-0.013-0.608,0.014l-0.348,0.066l-0.09-0.346c-0.085-0.327-0.083-0.619-0.096-0.913
								c-0.003-0.292,0.015-0.581,0.043-0.868C125.066,297.092,125.192,296.527,125.384,295.972z"/>
						</g>
					</g>
					<g>
						<g>
							<path style="fill:#5B7813;" d="M121.064,300.302c0.242,0.464,0.329,1.002,0.32,1.527c-0.008,0.528-0.121,1.053-0.301,1.548
								l-0.348-0.509c0.595,0.007,1.158,0.092,1.717,0.257c0.554,0.159,1.096,0.428,1.521,0.824c-0.564-0.12-1.104-0.165-1.64-0.225
								c-0.534-0.05-1.084-0.087-1.602-0.106l-0.539-0.02l0.19-0.49C120.726,302.226,120.974,301.325,121.064,300.302z"/>
						</g>
					</g>
					<g>
						<g>
							<path style="fill:#5B7813;" d="M116.299,306.002c0.39,1.16,0.542,2.346,0.684,3.502l-0.431-0.326
								c1.142-0.155,2.297-0.25,3.474-0.079c-1.108,0.414-2.229,0.647-3.361,0.827l-0.389,0.062l-0.043-0.387
								C116.099,308.397,116.086,307.211,116.299,306.002z"/>
						</g>
					</g>
					<g>
						<g>
							<path style="fill:#5B7813;" d="M88.813,291.673c0.043,0.771,0.055,1.534,0.039,2.288c0.001,0.749-0.043,1.518,0.021,2.21
								l0.058,0.625l-0.581-0.237c-0.675-0.275-1.395-0.515-2.106-0.723c-0.719-0.19-1.441-0.381-2.219-0.378
								c0.359-0.162,0.758-0.214,1.153-0.253c0.396-0.021,0.794-0.003,1.184,0.051c0.787,0.103,1.535,0.314,2.281,0.605
								l-0.523,0.388c-0.058-0.823,0.027-1.575,0.146-2.337C88.383,293.152,88.567,292.406,88.813,291.673z"/>
						</g>
					</g>
					<g>
						<g>
							<path style="fill:#5B7813;" d="M92.73,295.726c0.082,1.296-0.034,2.574-0.084,3.805l-0.013,0.311l-0.319,0.045
								c-1.413,0.199-2.831,0.466-4.312,0.655c0.637-0.395,1.325-0.704,2.036-0.924c0.714-0.223,1.434-0.388,2.191-0.474
								l-0.331,0.356c0.039-0.661,0.139-1.292,0.279-1.921C92.313,296.952,92.496,296.333,92.73,295.726z"/>
						</g>
					</g>
					<g>
						<g>
							<path style="fill:#5B7813;" d="M97.365,298.292c0.143,0.769,0.244,1.535,0.297,2.298l0.156,2.257l0.023,0.341l-0.317,0.07
								c-0.62,0.136-1.261,0.32-1.888,0.507c-0.628,0.198-1.255,0.403-1.889,0.662c0.48-0.49,1.062-0.882,1.676-1.188
								c0.618-0.313,1.256-0.544,1.943-0.713l-0.293,0.411c-0.089-0.806-0.067-1.566-0.025-2.341
								C97.091,299.825,97.199,299.057,97.365,298.292z"/>
						</g>
					</g>
					<g>
						<g>
							<path style="fill:#5B7813;" d="M102.905,302.879c0.239,1.196,0.478,2.401,0.759,3.573l0.062,0.259l-0.313,0.151h0
								c-1.168,0.286-2.342,0.632-3.501,1.012c1.059-0.611,2.133-1.19,3.251-1.728h0l-0.25,0.41
								C102.879,305.318,102.894,304.102,102.905,302.879z"/>
						</g>
					</g>
					<g>
						<g>
							<path style="fill:#5B7813;" d="M108.529,307.869c0.004,0.645-0.022,1.277-0.074,1.897c-0.037,0.617-0.112,1.247-0.09,1.81
								l0.016,0.419l-0.421-0.024l-1.861-0.108c-0.624-0.022-1.242-0.083-1.887-0.048c0.279-0.176,0.597-0.266,0.909-0.366
								c0.317-0.081,0.637-0.142,0.958-0.179c0.645-0.082,1.283-0.087,1.934-0.055l-0.404,0.395
								c-0.008-0.696,0.109-1.316,0.267-1.939C108.028,309.051,108.248,308.45,108.529,307.869z"/>
						</g>
					</g>
					<g>
						<g>
							<path style="fill:#5B7813;" d="M111.576,314.763c-0.055,0.602-0.124,1.183-0.203,1.747c-0.068,0.552-0.14,1.147-0.047,1.569
								l0.325,1.478l-0.97-1.135c-0.305-0.358-0.639-0.722-0.97-1.07c-0.343-0.342-0.668-0.695-1.125-0.935
								c0.265-0.033,0.527,0.052,0.779,0.134c0.25,0.094,0.486,0.218,0.702,0.364c0.444,0.286,0.824,0.629,1.182,1.022l-0.645,0.342
								c-0.108-0.368-0.07-0.693-0.041-1.006c0.041-0.311,0.117-0.609,0.208-0.897c0.094-0.288,0.207-0.566,0.338-0.836
								C111.257,315.273,111.39,315.006,111.576,314.763z"/>
						</g>
					</g>
					<g>
						<g>
							<path style="fill:#5B7813;" d="M83.186,305.751c0.949,0.932,1.711,1.986,2.436,3.055l0.342,0.503l-0.616,0.082
								c-0.275,0.037-0.604,0.113-0.902,0.205c-0.31,0.08-0.609,0.196-0.915,0.306c-0.602,0.239-1.203,0.511-1.813,0.827
								c0.418-0.546,0.947-1.016,1.552-1.364c0.298-0.184,0.621-0.323,0.948-0.455c0.339-0.116,0.661-0.216,1.051-0.27l-0.274,0.585
								C84.284,308.13,83.643,307.001,83.186,305.751z"/>
						</g>
					</g>
					<g>
						<g>
							<path style="fill:#5B7813;" d="M88.828,306.497c0.287,0.621,0.551,1.232,0.802,1.833c0.254,0.588,0.525,1.206,0.872,1.615
								l0.268,0.316l-0.311,0.233c-0.891,0.669-1.819,1.292-2.864,1.763c0.711-0.9,1.54-1.648,2.405-2.351l-0.042,0.549
								c-0.285-0.293-0.439-0.623-0.589-0.942c-0.141-0.324-0.242-0.655-0.328-0.987c-0.081-0.333-0.141-0.668-0.179-1.006
								C88.838,307.178,88.804,306.841,88.828,306.497z"/>
						</g>
					</g>
					<g>
						<g>
							<path style="fill:#5B7813;" d="M93.115,307.018c0.864,1.184,1.482,2.475,2.031,3.794l0.119,0.287l-0.27,0.178
								c-0.156,0.103-0.384,0.313-0.571,0.494c-0.192,0.195-0.385,0.397-0.573,0.607c-0.377,0.419-0.753,0.855-1.152,1.292
								c0.167-0.567,0.4-1.11,0.706-1.619c0.15-0.256,0.318-0.504,0.512-0.737c0.199-0.243,0.376-0.45,0.696-0.674l-0.15,0.465
								C93.886,309.797,93.377,308.461,93.115,307.018z"/>
						</g>
					</g>
					<g>
						<g>
							<path style="fill:#5B7813;" d="M97.693,308.407c0.897,1.296,1.521,2.704,2.074,4.139l0.141,0.366l-0.377,0.125
								c-0.199,0.066-0.458,0.167-0.68,0.282c-0.226,0.121-0.46,0.241-0.68,0.385c-0.446,0.282-0.879,0.605-1.313,0.963
								c0.236-0.51,0.574-0.977,0.983-1.38c0.211-0.193,0.43-0.386,0.676-0.542c0.251-0.159,0.485-0.306,0.807-0.414l-0.237,0.491
								C98.483,311.407,97.952,309.962,97.693,308.407z"/>
						</g>
					</g>
					<g>
						<g>
							<path style="fill:#5B7813;" d="M102.502,311.115c0.782,1.216,1.319,2.52,1.789,3.849l0.116,0.329l-0.318,0.141
								c-1.05,0.464-2.097,0.966-3.17,1.518c0.362-0.49,0.814-0.912,1.303-1.271c0.49-0.365,1.007-0.668,1.57-0.931l-0.202,0.469
								C103.099,313.896,102.679,312.549,102.502,311.115z"/>
						</g>
					</g>
					<g>
						<g>
							<path style="fill:#5B7813;" d="M106.655,314.59c0.524,1.027,0.781,2.103,0.964,3.192l0.056,0.336l-0.323,0.088
								c-0.809,0.223-1.627,0.45-2.492,0.714c0.289-0.357,0.656-0.646,1.047-0.876c0.395-0.232,0.801-0.417,1.247-0.553
								l-0.266,0.424C106.673,316.833,106.53,315.736,106.655,314.59z"/>
						</g>
					</g>
				</g>
				<path style="fill:#E9CDA8;" d="M133.151,328.175c-1.226-2.05-1.943-4.438-1.943-6.999c0-7.548,6.119-13.667,13.666-13.667
					c7.548,0,13.668,6.118,13.668,13.667c0,2.561-0.718,4.949-1.944,6.999h3.296c0.992-2.127,1.55-4.497,1.55-6.999
					c0-9.151-7.42-16.571-16.569-16.571c-9.15,0-16.569,7.42-16.569,16.571c0,2.501,0.558,4.872,1.55,6.999H133.151z"/>
				<path style="fill:#E9CDA8;" d="M107.216,290.458c-9.151,0-16.569,7.418-16.569,16.569c0,9.151,7.418,16.569,16.569,16.569
					c9.151,0,16.568-7.418,16.568-16.569C123.784,297.876,116.367,290.458,107.216,290.458z M107.216,320.694
					c-7.549,0-13.666-6.119-13.666-13.667c0-7.548,6.117-13.667,13.666-13.667c7.548,0,13.666,6.119,13.666,13.667
					C120.882,314.575,114.764,320.694,107.216,320.694z"/>
				<path style="fill:#E9CDA8;" d="M157.898,287.783c-9.151,0-16.569,7.418-16.569,16.57c0,9.151,7.418,16.57,16.569,16.57
					c9.15,0,16.569-7.419,16.569-16.57C174.467,295.201,167.048,287.783,157.898,287.783z M157.898,318.02
					c-7.548,0-13.667-6.119-13.667-13.668c0-7.548,6.119-13.667,13.667-13.667c7.548,0,13.666,6.119,13.666,13.667
					C171.563,311.901,165.445,318.02,157.898,318.02z"/>
				<g>
					<path style="fill:#5B7813;" d="M182.145,289.371c-0.191-0.332,0.426-1.033,1.4-1.557c3.498-1.881,1.505-2.433,0.523-2.243
						c-0.445,0.085-0.171-1.49-0.255-2.582c-0.065-0.84-0.284-1.344-0.594-1.537c-0.361-0.044-0.85,0.212-1.428,0.823
						c-0.749,0.799-1.523,2.196-1.817,1.851c-0.646-0.764-2.543-1.586-1.001,2.076c0.43,1.017,0.469,1.949,0.114,2.089
						c-0.595,0.233-2.852-3.403-1.404,3.306c0.2,0.931,0.755,1.414,1.384,1.622c0.619,0.23,1.354,0.204,2.095-0.394
						C186.5,288.512,182.46,289.924,182.145,289.371z"/>
					<g>
						<path style="fill:#5B7813;" d="M183.243,298.53c0.1-0.369,1.029-0.434,2.092-0.119c3.808,1.128,2.78-0.667,1.948-1.225
							c-0.376-0.252,0.931-1.179,1.64-2.012c0.542-0.643,0.746-1.154,0.66-1.511c-0.227-0.285-0.753-0.447-1.592-0.418
							c-1.096,0.037-2.632,0.484-2.595,0.033c0.079-0.997-0.689-2.917-2.173,0.768c-0.413,1.025-1.04,1.715-1.392,1.564
							c-0.584-0.253,0.373-4.425-3.323,1.358c-0.515,0.803-0.459,1.537-0.161,2.126c0.277,0.601,0.818,1.099,1.766,1.193
							C186.941,300.987,183.078,299.145,183.243,298.53z"/>
						<path style="fill:#5B7813;" d="M172.482,294.73c0.154-0.35-0.531-0.981-1.553-1.403c-3.672-1.515-1.747-2.268-0.749-2.179
							c0.45,0.04,0.016-1.501-0.014-2.593c-0.018-0.843,0.147-1.367,0.436-1.592c0.355-0.079,0.865,0.125,1.502,0.676
							c0.829,0.714,1.743,2.028,2,1.653c0.564-0.824,2.365-1.838,1.207,1.961c-0.321,1.06-0.266,1.99,0.101,2.092
							c0.614,0.171,2.489-3.677,1.735,3.143c-0.105,0.948-0.607,1.486-1.21,1.757c-0.592,0.293-1.325,0.341-2.125-0.179
							C168.06,294.321,172.223,295.315,172.482,294.73z"/>
					</g>
					<g>
						<g>
							<path style="fill:#2B4003;" d="M173.316,304.351c0.651-0.676,1.184-1.449,1.673-2.241c0.5-0.787,0.954-1.601,1.374-2.433
								c0.843-1.662,1.611-3.363,2.276-5.108c0.71-1.727,1.32-3.494,1.923-5.266c0.604-1.772,1.163-3.561,1.75-5.348
								c-0.328,1.853-0.769,3.682-1.277,5.494c-0.509,1.813-1.127,3.594-1.798,5.356c-0.721,1.742-1.491,3.471-2.441,5.107
								C175.833,301.526,174.787,303.155,173.316,304.351z"/>
						</g>
					</g>
					<g>
						<g>
							<path style="fill:#2B4003;" d="M187.228,294.61c-0.55,0.789-1.25,1.46-2.005,2.054c-0.755,0.598-1.588,1.099-2.47,1.504
								c-1.756,0.79-3.801,1.166-5.67,0.669c1.902-0.194,3.648-0.689,5.317-1.452C184.072,296.637,185.64,295.666,187.228,294.61z"
								/>
						</g>
					</g>
					<g>
						<g>
							<path style="fill:#2B4003;" d="M171.79,289.653c0.816,1.672,1.522,3.336,2.354,4.931c0.407,0.8,0.852,1.575,1.347,2.314
								c0.504,0.734,1.059,1.427,1.788,2.011c-0.906-0.268-1.684-0.897-2.314-1.596c-0.641-0.703-1.146-1.507-1.583-2.335
								c-0.423-0.836-0.778-1.701-1.046-2.592C172.066,291.497,171.859,290.586,171.79,289.653z"/>
						</g>
					</g>
				</g>
				<g>
					<path style="fill:#E30613;" d="M224.621,328.175c2.745-3.764,4.369-8.397,4.369-13.412c0-12.584-10.202-22.785-22.785-22.785
						c-12.585,0-22.785,10.202-22.785,22.785c0,5.015,1.623,9.648,4.368,13.412H224.621z"/>
					<path style="fill:#E94C29;" d="M192.813,328.175h26.784c3.437-3.431,5.562-8.173,5.562-13.412
						c0-10.467-8.486-18.953-18.953-18.953c-10.468,0-18.953,8.485-18.953,18.953C187.252,320.002,189.377,324.744,192.813,328.175z
						"/>
					<g>
						<g>
							<path style="fill:#BD0E0D;" d="M206.205,297.579c-5.164-0.046-10.108,1.402-9.74,4.221c0.451,3.469,2.189,6.208,6.634,8.683
								c0.668,0.372,2.448,0.949,3.106,0.959c0.659-0.01,2.438-0.587,3.107-0.959c4.444-2.475,6.184-5.214,6.634-8.683
								C216.312,298.982,211.369,297.533,206.205,297.579z"/>
							<path style="fill:#E94C29;" d="M200.628,304.103c0.322,0.524,1.106,2.764,0.582,3.086c-0.526,0.321-2.162-1.397-2.483-1.923
								c-0.321-0.524-0.155-1.212,0.369-1.532C199.622,303.413,200.308,303.578,200.628,304.103z"/>
							<path style="fill:#E94C29;" d="M211.375,304.103c-0.321,0.524-1.106,2.764-0.581,3.086c0.525,0.321,2.162-1.397,2.481-1.923
								c0.321-0.524,0.156-1.212-0.368-1.532C212.381,303.413,211.696,303.578,211.375,304.103z"/>
							<path style="fill:#E94C29;" d="M206.678,306.767c-0.259,0.559-0.784,2.872-0.226,3.131c0.56,0.259,1.988-1.634,2.247-2.192
								c0.26-0.558,0.018-1.221-0.54-1.48C207.599,305.965,206.936,306.208,206.678,306.767z"/>
							<path style="fill:#E94C29;" d="M204.967,304.82c0.185,0.588,0.403,2.95-0.184,3.135c-0.589,0.186-1.759-1.877-1.942-2.465
								c-0.186-0.589,0.141-1.212,0.727-1.4C204.155,303.906,204.782,304.233,204.967,304.82z"/>
							<path style="fill:#E94C29;" d="M201.436,300.312c0.257,0.559,0.76,2.879,0.199,3.134c-0.561,0.254-1.973-1.651-2.227-2.212
								c-0.254-0.56-0.007-1.221,0.555-1.475C200.521,299.503,201.183,299.75,201.436,300.312z"/>
							<path style="fill:#E94C29;" d="M209.487,300.312c-0.255,0.559-0.758,2.879-0.197,3.134c0.561,0.254,1.975-1.651,2.227-2.212
								c0.255-0.56,0.009-1.221-0.554-1.475C210.404,299.503,209.743,299.75,209.487,300.312z"/>
							<path style="fill:#E94C29;" d="M204.88,300.253c0.021,0.615,0.612,2.913,1.227,2.889c0.614-0.023,1.023-2.361,0.998-2.977
								c-0.024-0.615-0.542-1.094-1.156-1.069C205.333,299.12,204.854,299.637,204.88,300.253z"/>
						</g>
						<g>
							<path style="fill:#BD0E0D;" d="M215.952,328.175c0.011-0.147,0.014-0.295-0.007-0.451c-0.45-3.466-2.189-6.206-6.634-8.681
								c-0.669-0.37-2.447-0.949-3.107-0.958c-0.658,0.009-2.438,0.588-3.106,0.958c-4.444,2.475-6.183,5.215-6.634,8.681
								c-0.021,0.155-0.018,0.304-0.007,0.451H215.952z"/>
							<path style="fill:#E94C29;" d="M200.628,325.425c0.322-0.524,1.106-2.764,0.582-3.086c-0.526-0.321-2.162,1.397-2.483,1.922
								c-0.321,0.525-0.155,1.211,0.369,1.533C199.622,326.115,200.308,325.951,200.628,325.425z"/>
							<path style="fill:#E94C29;" d="M211.375,325.425c-0.321-0.524-1.106-2.764-0.581-3.086c0.525-0.321,2.162,1.397,2.481,1.922
								c0.321,0.525,0.156,1.211-0.368,1.533C212.381,326.115,211.696,325.951,211.375,325.425z"/>
							<path style="fill:#E94C29;" d="M206.678,322.76c-0.259-0.558-0.784-2.873-0.226-3.131c0.56-0.259,1.988,1.635,2.247,2.192
								c0.26,0.56,0.018,1.223-0.54,1.482C207.599,323.562,206.936,323.319,206.678,322.76z"/>
							<path style="fill:#E94C29;" d="M204.967,324.706c0.185-0.588,0.403-2.95-0.184-3.133c-0.589-0.187-1.759,1.876-1.942,2.464
								c-0.186,0.587,0.141,1.214,0.727,1.397C204.155,325.62,204.782,325.294,204.967,324.706z"/>
							<path style="fill:#E94C29;" d="M201.733,328.175c0.179-0.866,0.271-1.925-0.099-2.092c-0.525-0.24-1.8,1.421-2.167,2.092
								H201.733z"/>
							<path style="fill:#E94C29;" d="M211.458,328.175c-0.367-0.671-1.642-2.332-2.168-2.092c-0.369,0.167-0.276,1.226-0.099,2.092
								H211.458z"/>
						</g>
						<g>
							<path style="fill:#BD0E0D;" d="M223.39,314.763c0.046-5.164-1.402-10.108-4.223-9.74c-3.467,0.451-6.208,2.189-8.682,6.633
								c-0.372,0.669-0.949,2.448-0.959,3.107c0.01,0.66,0.587,2.439,0.959,3.106c2.474,4.446,5.215,6.185,8.682,6.635
								C221.987,324.871,223.436,319.929,223.39,314.763z"/>
							<path style="fill:#E94C29;" d="M216.866,309.187c-0.525,0.322-2.765,1.105-3.084,0.58c-0.323-0.524,1.395-2.16,1.921-2.482
								c0.525-0.32,1.211-0.155,1.532,0.371C217.557,308.181,217.391,308.866,216.866,309.187z"/>
							<path style="fill:#E94C29;" d="M216.866,319.931c-0.525-0.32-2.765-1.104-3.084-0.578c-0.323,0.524,1.395,2.16,1.921,2.48
								c0.525,0.322,1.211,0.158,1.532-0.368C217.557,320.94,217.391,320.255,216.866,319.931z"/>
							<path style="fill:#E94C29;" d="M214.203,315.235c-0.559-0.259-2.872-0.782-3.133-0.225c-0.259,0.56,1.634,1.988,2.193,2.248
								c0.559,0.258,1.222,0.017,1.48-0.542C215.003,316.159,214.763,315.495,214.203,315.235z"/>
							<path style="fill:#E94C29;" d="M216.147,313.525c-0.588,0.184-2.948,0.403-3.135-0.184c-0.184-0.588,1.878-1.758,2.467-1.942
								c0.586-0.185,1.214,0.142,1.398,0.729C217.061,312.715,216.734,313.341,216.147,313.525z"/>
							<path style="fill:#E94C29;" d="M220.657,309.995c-0.562,0.254-2.879,0.76-3.133,0.2c-0.256-0.563,1.651-1.975,2.211-2.232
								c0.561-0.252,1.221-0.005,1.476,0.555C221.465,309.079,221.217,309.739,220.657,309.995z"/>
							<path style="fill:#E94C29;" d="M220.657,318.047c-0.562-0.255-2.879-0.76-3.133-0.199c-0.256,0.561,1.651,1.975,2.211,2.229
								c0.561,0.254,1.221,0.006,1.476-0.555C221.465,318.963,221.217,318.302,220.657,318.047z"/>
							<path style="fill:#E94C29;" d="M220.716,313.437c-0.614,0.022-2.913,0.612-2.889,1.228c0.023,0.615,2.359,1.024,2.977,1
								c0.614-0.025,1.094-0.545,1.07-1.159C221.849,313.891,221.331,313.412,220.716,313.437z"/>
						</g>
						<g>
							<path style="fill:#BD0E0D;" d="M189.02,314.763c-0.046-5.164,1.403-10.108,4.222-9.74c3.47,0.451,6.208,2.189,8.682,6.633
								c0.373,0.669,0.951,2.448,0.961,3.107c-0.01,0.66-0.588,2.439-0.961,3.106c-2.474,4.446-5.212,6.185-8.682,6.635
								C190.424,324.871,188.975,319.929,189.02,314.763z"/>
							<path style="fill:#E94C29;" d="M195.544,309.187c0.525,0.322,2.763,1.105,3.086,0.58c0.321-0.524-1.397-2.16-1.923-2.482
								c-0.525-0.32-1.213-0.155-1.533,0.371C194.854,308.181,195.019,308.866,195.544,309.187z"/>
							<path style="fill:#E94C29;" d="M195.544,319.931c0.525-0.32,2.763-1.104,3.086-0.578c0.321,0.524-1.397,2.16-1.923,2.48
								c-0.525,0.322-1.213,0.158-1.533-0.368C194.854,320.94,195.019,320.255,195.544,319.931z"/>
							<path style="fill:#E94C29;" d="M198.207,315.235c0.56-0.259,2.873-0.782,3.131-0.225c0.261,0.56-1.634,1.988-2.19,2.248
								c-0.56,0.258-1.223,0.017-1.48-0.542C197.407,316.159,197.647,315.495,198.207,315.235z"/>
							<path style="fill:#E94C29;" d="M196.262,313.525c0.588,0.184,2.95,0.403,3.135-0.184c0.185-0.588-1.878-1.758-2.464-1.942
								c-0.589-0.185-1.214,0.142-1.399,0.729C195.35,312.715,195.676,313.341,196.262,313.525z"/>
							<path style="fill:#E94C29;" d="M191.753,309.995c0.559,0.254,2.879,0.76,3.134,0.2c0.256-0.563-1.651-1.975-2.212-2.232
								c-0.561-0.252-1.22-0.005-1.476,0.555C190.944,309.079,191.193,309.739,191.753,309.995z"/>
							<path style="fill:#E94C29;" d="M191.753,318.047c0.559-0.255,2.879-0.76,3.134-0.199c0.256,0.561-1.651,1.975-2.212,2.229
								c-0.561,0.254-1.22,0.006-1.476-0.555C190.944,318.963,191.193,318.302,191.753,318.047z"/>
							<path style="fill:#E94C29;" d="M191.695,313.437c0.614,0.022,2.913,0.612,2.888,1.228c-0.024,0.615-2.359,1.024-2.975,1
								c-0.615-0.025-1.095-0.545-1.07-1.159C190.562,313.891,191.078,313.412,191.695,313.437z"/>
						</g>
					</g>
				</g>
				<g>
					<path style="fill:#5B7813;" d="M203.917,328.175c1.462-2.918,2.289-6.208,2.289-9.694c0-11.973-9.709-21.679-21.683-21.679
						c-11.975,0-21.682,9.706-21.682,21.679c0,3.485,0.828,6.775,2.289,9.694H203.917z"/>
					<path style="fill:#B2B2B2;" d="M170.253,321.793c1.104-0.254,2.149-0.671,3.262-0.888c-0.341,0.083,1.121-0.047,1.07-0.045
						c0.321-0.004,0.639,0.008,0.958,0.029c0.09,0.019,0.241,0.05,0.465,0.093c0.247,0.055,0.39,0.08,0.467,0.085
						c0.087,0.047,0.225,0.113,0.432,0.207c0.442,0.202,0.889,0.395,1.344,0.573c-1.037,1.493-2.016,2.934-2.65,4.684
						c-0.194,0.539-0.329,1.088-0.418,1.643h11.03c0.483-0.713,1.006-1.402,1.495-2.109c0.214-0.308,0.417-0.628,0.611-0.955
						c0.261,0.156,0.523,0.309,0.784,0.461c0.341,0.201,0.68,0.403,1.018,0.61c0.123,0.076,0.523,0.372,0.755,0.537
						c0.04,0.043,0.079,0.085,0.114,0.125c0.098,0.194,0.184,0.396,0.272,0.588c0.115,0.251,0.236,0.498,0.36,0.743h12.41
						c0.324-0.653,0.622-1.322,0.882-2.009c-0.648-0.94-1.592-1.659-2.755-1.885c-0.322-0.055-0.642-0.124-0.958-0.209
						c-0.068-0.017-0.123-0.029-0.175-0.042c-0.079-0.092-0.155-0.192-0.203-0.271c-0.921-1.515-1.417-2.952-2.715-4.259
						c-0.4-0.405-0.848-0.77-1.31-1.115c0.237-0.169,0.476-0.344,0.712-0.528c0.472-0.367,0.854-0.885,1.247-1.332
						c0.115-0.133,0.246-0.254,0.371-0.38c-0.123,0.152,0.28-0.162,0.526-0.333c1.599,1.237,3.692,1.595,5.651,0.446
						c0.284-0.166,0.554-0.369,0.801-0.597c-0.487-3.684-1.895-7.076-3.992-9.934c-2.349-0.563-4.946-0.076-7.481,1.188
						c-1.463,0.729-2.554,1.86-3.642,3.022c-0.069-0.017-0.161-0.037-0.283-0.061c-0.388-0.077-0.762-0.2-1.136-0.333
						c-0.232-0.086-0.465-0.138-0.702-0.175c-0.021-0.065-0.045-0.129-0.065-0.195c-0.214-0.67-0.371-1.358-0.518-2.042
						c-0.086-0.392-0.152-0.79-0.221-1.186c-0.004-0.018-0.007-0.033-0.009-0.046v-0.002c-0.063-0.566-0.073-1.125-0.055-1.691
						c0.009-0.049,0.021-0.107,0.036-0.171c0.005-0.021,0.008-0.036,0.012-0.054c0.013-0.022,0.029-0.047,0.043-0.072
						c0.221-0.239,0.458-0.46,0.695-0.679c0.647-0.598,1.348-1.142,2.016-1.714c0.97-0.832,1.436-2.034,1.48-3.268
						c-2.384-0.9-4.965-1.397-7.664-1.397c-1.442,0-2.852,0.144-4.216,0.412c-0.471,0.539-0.906,1.116-1.275,1.767
						c-1.227,2.153-1.514,4.77-1.239,7.192c0.177,1.572,0.424,3.263,0.845,4.91c-2.513-0.732-5.225-0.455-7.763-0.098
						c-0.863,0.122-1.695,0.396-2.524,0.657c-0.01,0.005-0.023,0.007-0.032,0.01c-0.635-0.982-1.13-2.338-1.358-3.584
						c-0.098-0.532-0.3-1.017-0.581-1.448c-2.233,3.409-3.536,7.483-3.536,11.862c0,0.728,0.038,1.445,0.107,2.155
						C165.115,322.119,167.627,322.396,170.253,321.793z"/>
					<g>
						<path style="fill:#A8C05F;" d="M199.73,328.175c1.789-2.801,2.83-6.124,2.83-9.694c0-9.958-8.075-18.033-18.037-18.033
							c-9.96,0-18.034,8.074-18.034,18.033c0,3.57,1.041,6.893,2.829,9.694H199.73z"/>
						<g>
							<g>
								<path style="fill:#DCD67B;" d="M179.218,308.337c0.307,0.501,1.054,2.631,0.553,2.936c-0.5,0.305-2.057-1.329-2.361-1.829
									c-0.308-0.499-0.148-1.154,0.35-1.458C178.259,307.681,178.913,307.837,179.218,308.337z"/>
								<path style="fill:#DCD67B;" d="M189.443,308.337c-0.306,0.501-1.052,2.631-0.553,2.936c0.499,0.305,2.058-1.329,2.363-1.829
									c0.305-0.499,0.146-1.154-0.353-1.458C190.401,307.681,189.748,307.837,189.443,308.337z"/>
								<path style="fill:#DCD67B;" d="M184.974,310.87c-0.245,0.534-0.746,2.735-0.214,2.982c0.531,0.246,1.893-1.556,2.138-2.086
									c0.248-0.532,0.017-1.163-0.514-1.41C185.852,310.11,185.221,310.341,184.974,310.87z"/>
								<path style="fill:#DCD67B;" d="M183.346,309.022c0.175,0.558,0.385,2.807-0.174,2.981c-0.561,0.176-1.675-1.787-1.85-2.346
									c-0.177-0.559,0.136-1.154,0.692-1.33C182.574,308.151,183.17,308.463,183.346,309.022z"/>
								<path style="fill:#DCD67B;" d="M179.987,304.73c0.243,0.533,0.723,2.739,0.189,2.982c-0.533,0.243-1.88-1.572-2.12-2.103
									c-0.243-0.535-0.007-1.164,0.525-1.406C179.116,303.961,179.744,304.196,179.987,304.73z"/>
								<path style="fill:#DCD67B;" d="M187.65,304.73c-0.241,0.533-0.723,2.739-0.191,2.982c0.534,0.243,1.88-1.572,2.122-2.103
									c0.241-0.535,0.006-1.164-0.529-1.406C188.52,303.961,187.892,304.196,187.65,304.73z"/>
								<path style="fill:#DCD67B;" d="M183.261,304.675c0.022,0.585,0.584,2.771,1.17,2.749c0.586-0.023,0.975-2.247,0.951-2.832
									c-0.024-0.585-0.518-1.041-1.103-1.018C183.694,303.596,183.239,304.088,183.261,304.675z"/>
							</g>
							<g>
								<path style="fill:#DCD67B;" d="M179.434,328.175c0.334-0.809,0.74-2.237,0.337-2.483c-0.5-0.307-2.057,1.329-2.361,1.828
									c-0.125,0.204-0.17,0.434-0.148,0.655H179.434z"/>
								<path style="fill:#DCD67B;" d="M191.4,328.175c0.022-0.222-0.022-0.451-0.146-0.655c-0.306-0.499-1.864-2.135-2.363-1.828
									c-0.402,0.246,0.003,1.674,0.336,2.483H191.4z"/>
								<path style="fill:#DCD67B;" d="M184.974,326.092c-0.245-0.53-0.746-2.731-0.214-2.98c0.531-0.245,1.893,1.557,2.138,2.087
									c0.248,0.532,0.017,1.164-0.514,1.409C185.852,326.853,185.221,326.625,184.974,326.092z"/>
								<path style="fill:#DCD67B;" d="M183.238,328.175c0.043-0.072,0.081-0.147,0.107-0.23c0.175-0.56,0.385-2.808-0.174-2.984
									c-0.561-0.176-1.675,1.788-1.85,2.346c-0.096,0.304-0.044,0.615,0.109,0.868H183.238z"/>
							</g>
							<g>
								<path style="fill:#DCD67B;" d="M194.669,313.176c-0.501,0.307-2.63,1.051-2.937,0.553c-0.305-0.5,1.329-2.058,1.829-2.364
									c0.499-0.306,1.153-0.147,1.458,0.354C195.325,312.218,195.168,312.872,194.669,313.176z"/>
								<path style="fill:#DCD67B;" d="M194.669,323.401c-0.501-0.307-2.63-1.053-2.937-0.554c-0.305,0.501,1.329,2.058,1.829,2.362
									c0.499,0.307,1.153,0.151,1.458-0.35C195.325,324.359,195.168,323.705,194.669,323.401z"/>
								<path style="fill:#DCD67B;" d="M192.135,318.931c-0.532-0.246-2.733-0.745-2.98-0.212c-0.247,0.53,1.555,1.888,2.086,2.137
									c0.531,0.246,1.163,0.016,1.409-0.516C192.896,319.81,192.666,319.177,192.135,318.931z"/>
								<path style="fill:#DCD67B;" d="M193.984,317.304c-0.558,0.176-2.806,0.383-2.981-0.175c-0.176-0.56,1.787-1.673,2.346-1.849
									c0.559-0.177,1.154,0.135,1.331,0.693C194.854,316.532,194.543,317.128,193.984,317.304z"/>
								<path style="fill:#DCD67B;" d="M198.275,313.945c-0.532,0.243-2.739,0.723-2.98,0.19c-0.243-0.535,1.57-1.878,2.104-2.122
									c0.533-0.242,1.162-0.005,1.405,0.527C199.045,313.073,198.81,313.702,198.275,313.945z"/>
								<path style="fill:#DCD67B;" d="M198.275,321.607c-0.532-0.242-2.739-0.722-2.98-0.19c-0.243,0.535,1.57,1.88,2.104,2.121
									c0.533,0.242,1.162,0.007,1.405-0.527C199.045,322.478,198.81,321.849,198.275,321.607z"/>
								<path style="fill:#DCD67B;" d="M198.333,317.22c-0.587,0.022-2.773,0.585-2.75,1.169c0.024,0.585,2.247,0.973,2.832,0.95
									c0.585-0.022,1.042-0.517,1.018-1.102C199.409,317.651,198.918,317.195,198.333,317.22z"/>
							</g>
							<g>
								<path style="fill:#DCD67B;" d="M174.379,313.176c0.501,0.307,2.631,1.051,2.936,0.553c0.305-0.5-1.329-2.058-1.828-2.364
									c-0.5-0.306-1.153-0.147-1.46,0.354C173.722,312.218,173.88,312.872,174.379,313.176z"/>
								<path style="fill:#DCD67B;" d="M174.379,323.401c0.501-0.307,2.631-1.053,2.936-0.554c0.305,0.501-1.329,2.058-1.828,2.362
									c-0.5,0.307-1.153,0.151-1.46-0.35C173.722,324.359,173.88,323.705,174.379,323.401z"/>
								<path style="fill:#DCD67B;" d="M176.915,318.931c0.53-0.246,2.732-0.745,2.979-0.212c0.247,0.53-1.555,1.888-2.086,2.137
									c-0.532,0.246-1.163,0.016-1.408-0.516C176.152,319.81,176.382,319.177,176.915,318.931z"/>
								<path style="fill:#DCD67B;" d="M175.063,317.304c0.561,0.176,2.807,0.383,2.982-0.175c0.177-0.56-1.786-1.673-2.345-1.849
									c-0.559-0.177-1.155,0.135-1.332,0.693C174.193,316.532,174.505,317.128,175.063,317.304z"/>
								<path style="fill:#DCD67B;" d="M170.773,313.945c0.531,0.243,2.739,0.723,2.981,0.19c0.24-0.535-1.571-1.878-2.105-2.122
									c-0.533-0.242-1.162-0.005-1.405,0.527C170.003,313.073,170.238,313.702,170.773,313.945z"/>
								<path style="fill:#DCD67B;" d="M170.773,321.607c0.531-0.242,2.739-0.722,2.981-0.19c0.24,0.535-1.571,1.88-2.105,2.121
									c-0.533,0.242-1.162,0.007-1.405-0.527C170.003,322.478,170.238,321.849,170.773,321.607z"/>
								<path style="fill:#DCD67B;" d="M170.716,317.22c0.587,0.022,2.772,0.585,2.749,1.169c-0.024,0.585-2.245,0.973-2.831,0.95
									c-0.587-0.022-1.042-0.517-1.02-1.102C169.638,317.651,170.132,317.195,170.716,317.22z"/>
							</g>
						</g>
					</g>
				</g>
				<g>
					<polygon style="fill:#EF7900;" points="159.603,328.175 186.148,315.483 183.36,309.651 148.372,326.378 149.232,328.175 					
						"/>
					<polygon style="fill:#D76E00;" points="168.406,328.175 190.855,317.442 186.148,315.483 159.603,328.175 					"/>
					<polygon style="fill:#F39200;" points="186.148,315.483 183.36,309.651 188.067,311.609 190.855,317.442 					"/>
				</g>
				<g>
					<polygon style="fill:#EF7900;" points="89.797,328.175 74.36,305.138 68.99,308.739 82.015,328.175 					"/>
					<polygon style="fill:#D76E00;" points="94.366,328.175 75.619,300.2 74.36,305.138 89.797,328.175 					"/>
					<polygon style="fill:#F39200;" points="74.36,305.138 68.99,308.739 70.25,303.797 75.619,300.2 					"/>
				</g>
				<g>
					<path style="fill:#FFCB04;" d="M119.058,328.175h15.17c1.19-4.698-0.13-11.995-3.882-19.228
						c-5.447-10.503-13.956-16.893-19.007-14.275c-5.05,2.62-4.726,13.256,0.721,23.759
						C114.082,322.329,116.525,325.659,119.058,328.175z"/>
					<g>
						<path style="fill:#F8AD15;" d="M116.26,316.253c0.893,1.719,0.793,3.538-0.218,4.063c-1.014,0.525-2.559-0.442-3.449-2.162
							c-0.893-1.718-0.794-3.538,0.219-4.064C113.825,313.565,115.369,314.534,116.26,316.253z"/>
						<path style="fill:#F8AD15;" d="M120.776,313.91c0.894,1.717,0.795,3.538-0.217,4.064c-1.015,0.524-2.557-0.443-3.449-2.162
							c-0.893-1.72-0.794-3.539,0.22-4.064C118.342,311.222,119.887,312.19,120.776,313.91z"/>
						<path style="fill:#F8AD15;" d="M125.296,311.567c0.891,1.72,0.793,3.538-0.219,4.064c-1.014,0.524-2.559-0.443-3.448-2.164
							c-0.893-1.718-0.794-3.537,0.218-4.063C122.86,308.88,124.403,309.846,125.296,311.567z"/>
						<path style="fill:#F8AD15;" d="M129.813,309.224c0.893,1.719,0.793,3.538-0.22,4.064c-1.012,0.526-2.555-0.444-3.446-2.161
							c-0.893-1.72-0.794-3.539,0.219-4.064C127.377,306.536,128.921,307.505,129.813,309.224z"/>
						<path style="fill:#F8AD15;" d="M115.099,308.488c0.893,1.718,0.793,3.538-0.218,4.063c-1.014,0.526-2.558-0.442-3.449-2.161
							c-0.891-1.719-0.793-3.539,0.22-4.064C112.664,305.8,114.206,306.769,115.099,308.488z"/>
						<path style="fill:#F8AD15;" d="M119.616,306.146c0.892,1.72,0.795,3.538-0.219,4.064c-1.011,0.524-2.556-0.443-3.447-2.163
							c-0.892-1.719-0.795-3.538,0.218-4.064C117.182,303.458,118.725,304.427,119.616,306.146z"/>
						<path style="fill:#F8AD15;" d="M124.135,303.801c0.893,1.721,0.793,3.541-0.22,4.065c-1.012,0.523-2.556-0.443-3.447-2.163
							c-0.893-1.718-0.795-3.537,0.219-4.064C121.698,301.115,123.243,302.083,124.135,303.801z"/>
						<path style="fill:#F8AD15;" d="M122.017,321.826c0.893,1.719,0.793,3.538-0.219,4.064c-1.012,0.524-2.557-0.443-3.447-2.162
							c-0.893-1.72-0.794-3.539,0.219-4.065C119.58,319.139,121.124,320.107,122.017,321.826z"/>
						<path style="fill:#F8AD15;" d="M126.533,319.483c0.893,1.719,0.796,3.538-0.218,4.062c-1.013,0.526-2.557-0.442-3.447-2.161
							c-0.893-1.72-0.794-3.538,0.218-4.064C124.099,316.796,125.643,317.764,126.533,319.483z"/>
						<path style="fill:#F8AD15;" d="M131.053,317.141c0.89,1.717,0.792,3.538-0.22,4.063c-1.012,0.524-2.556-0.443-3.448-2.162
							c-0.892-1.721-0.794-3.539,0.219-4.063C128.616,314.452,130.159,315.421,131.053,317.141z"/>
						<path style="fill:#F8AD15;" d="M113.939,300.723c0.891,1.721,0.792,3.54-0.22,4.065c-1.014,0.524-2.556-0.443-3.448-2.162
							c-0.891-1.72-0.794-3.539,0.22-4.064C111.504,298.037,113.047,299.005,113.939,300.723z"/>
						<path style="fill:#F8AD15;" d="M118.456,298.381c0.892,1.718,0.793,3.538-0.22,4.064c-1.013,0.525-2.555-0.442-3.445-2.162
							c-0.894-1.719-0.795-3.538,0.218-4.063C116.021,295.694,117.564,296.661,118.456,298.381z"/>
						<path style="fill:#F8AD15;" d="M128.069,328.175c-0.097-0.309-0.214-0.619-0.374-0.928c-0.892-1.719-2.436-2.686-3.447-2.161
							c-0.821,0.425-1.031,1.705-0.608,3.089H128.069z"/>
						<path style="fill:#F8AD15;" d="M129.552,328.175h3.094c0.32-0.824,0.191-2.066-0.432-3.271
							c-0.893-1.72-2.437-2.688-3.449-2.162c-1.012,0.524-1.11,2.343-0.218,4.064C128.828,327.349,129.178,327.805,129.552,328.175z
							"/>
					</g>
				</g>
				<g>
					<g>
						<path style="fill:#5B7813;" d="M161.842,309.065c0,3.358-2.724,6.08-6.082,6.08c-3.357,0-6.078-2.721-6.078-6.08
							c0-3.357,2.721-6.08,6.078-6.08C159.118,302.985,161.842,305.707,161.842,309.065z"/>
						<path style="fill:#DADADA;" d="M158.357,303.573c0.768,1.018,1.23,2.282,1.23,3.657c0,3.357-2.722,6.081-6.08,6.081
							c-0.929,0-1.807-0.216-2.594-0.588c1.109,1.468,2.865,2.421,4.847,2.421c3.358,0,6.082-2.721,6.082-6.08
							C161.842,306.636,160.413,304.546,158.357,303.573z"/>
					</g>
					<path style="opacity:0.2;fill:#FFFFFF;" d="M160.154,306.588c0,1.368-1.884,2.477-4.207,2.477s-4.206-1.108-4.206-2.477
						c0-1.368,1.883-2.476,4.206-2.476S160.154,305.22,160.154,306.588z"/>
				</g>
				<g>
					<g>
						<path style="fill:#5B7813;" d="M203.165,287.783c0,3.358-2.722,6.081-6.08,6.081c-3.359,0-6.08-2.724-6.08-6.081
							c0-3.358,2.721-6.08,6.08-6.08C200.443,281.703,203.165,284.425,203.165,287.783z"/>
						<path style="fill:#DADADA;" d="M199.68,282.292c0.77,1.019,1.231,2.283,1.231,3.657c0,3.357-2.723,6.081-6.081,6.081
							c-0.928,0-1.806-0.215-2.594-0.587c1.11,1.47,2.866,2.423,4.849,2.423c3.358,0,6.08-2.724,6.08-6.081
							C203.165,285.355,201.738,283.266,199.68,282.292z"/>
					</g>
					<path style="opacity:0.2;fill:#FFFFFF;" d="M201.477,285.308c0,1.367-1.881,2.475-4.205,2.475
						c-2.323,0-4.205-1.108-4.205-2.475c0-1.369,1.882-2.478,4.205-2.478C199.596,282.83,201.477,283.939,201.477,285.308z"/>
				</g>
				<g>
					<g>
						<path style="fill:#5B7813;" d="M114.341,316.123c0,3.356-2.723,6.08-6.08,6.08c-3.358,0-6.08-2.723-6.08-6.08
							c0-3.358,2.722-6.081,6.08-6.081C111.618,310.042,114.341,312.765,114.341,316.123z"/>
						<path style="fill:#DADADA;" d="M110.854,310.63c0.771,1.019,1.231,2.283,1.231,3.658c0,3.358-2.722,6.08-6.079,6.08
							c-0.931,0-1.806-0.215-2.595-0.589c1.11,1.47,2.866,2.423,4.849,2.423c3.357,0,6.08-2.723,6.08-6.08
							C114.341,313.695,112.913,311.604,110.854,310.63z"/>
					</g>
					<path style="opacity:0.2;fill:#FFFFFF;" d="M112.653,313.646c0,1.368-1.884,2.478-4.207,2.478
						c-2.322,0-4.206-1.109-4.206-2.478c0-1.368,1.884-2.475,4.206-2.475C110.77,311.171,112.653,312.278,112.653,313.646z"/>
				</g>
				<g>
					<path style="fill:#587512;" d="M143.982,328.175h5.002c4.474-14.683,14.673-17.929,15.123-18.064l-0.952-3.235
						c-0.351,0.103-5.751,1.764-10.798,7.769l3.948-15.963l-4.844-1.198l-3.932,15.9c-1.676-7.618-5.654-11.582-5.915-11.834
						l-2.346,2.424C139.354,304.055,147.52,312.205,143.982,328.175z"/>
					<path style="fill:#6F9118;" d="M170.629,294.475c0.436-1.762-0.642-3.543-2.402-3.979c-0.039-0.01-0.08-0.014-0.118-0.025
						c0.405-0.346,0.713-0.82,0.851-1.377c0.354-1.429-0.518-2.874-1.948-3.228c-0.212-0.053-0.424-0.076-0.633-0.076
						c0.138-0.257,0.252-0.531,0.324-0.828c0.461-1.86-0.674-3.74-2.533-4.201c-1.187-0.293-2.379,0.066-3.208,0.844
						c-0.151-0.761-0.721-1.408-1.523-1.605c-0.427-0.106-0.852-0.068-1.233,0.078c-0.174-1.477-1.236-2.761-2.765-3.138
						c-1.972-0.488-3.966,0.715-4.452,2.686c-0.137,0.554-0.137,1.105-0.028,1.628c-0.975-0.01-1.86,0.646-2.105,1.633
						c-0.066,0.271-0.076,0.542-0.043,0.802c-0.046-0.014-0.095-0.031-0.144-0.043c-1.762-0.436-3.544,0.639-3.98,2.401
						c-0.317,1.288,0.172,2.584,1.146,3.358c-0.978,0.102-1.833,0.799-2.082,1.808c-0.305,1.239,0.41,2.486,1.612,2.861
						c-0.837,0.483-1.486,1.291-1.736,2.303c-0.488,1.971,0.714,3.964,2.688,4.451c1.152,0.286,2.309-0.01,3.17-0.696
						c-0.162,1.045,0.486,2.061,1.534,2.321c0.544,0.133,1.09,0.036,1.538-0.228c-0.084,1.627,0.989,3.141,2.631,3.546
						c1.441,0.357,2.891-0.247,3.686-1.4c0.313,0.276,0.693,0.486,1.127,0.593c1.43,0.354,2.874-0.518,3.229-1.948
						c0.052-0.208,0.074-0.415,0.074-0.619c0.905-0.066,1.704-0.701,1.934-1.628c0.03-0.12,0.046-0.237,0.057-0.355
						c0.011,0.004,0.021,0.007,0.03,0.01c1.284,0.318,2.586-0.466,2.903-1.753c0.151-0.616,0.049-1.234-0.238-1.747
						C169.237,296.713,170.306,295.784,170.629,294.475z"/>
					<path style="fill:#95C11F;" d="M152.701,299.585c0.357-1.443-0.523-2.901-1.966-3.259c-0.032-0.008-0.065-0.012-0.099-0.019
						c0.334-0.284,0.586-0.671,0.698-1.129c0.289-1.169-0.427-2.353-1.597-2.643c-0.172-0.043-0.346-0.061-0.518-0.062
						c0.114-0.21,0.207-0.435,0.265-0.677c0.378-1.522-0.551-3.063-2.074-3.439c-0.972-0.24-1.946,0.052-2.628,0.69
						c-0.12-0.623-0.589-1.152-1.247-1.314c-0.348-0.088-0.696-0.057-1.008,0.063c-0.144-1.21-1.013-2.26-2.265-2.57
						c-1.613-0.399-3.247,0.586-3.646,2.2c-0.112,0.452-0.112,0.905-0.024,1.333c-0.796-0.006-1.522,0.531-1.723,1.336
						c-0.055,0.222-0.063,0.444-0.034,0.658c-0.04-0.012-0.078-0.025-0.119-0.036c-1.443-0.356-2.902,0.524-3.259,1.967
						c-0.262,1.054,0.142,2.116,0.939,2.75c-0.801,0.082-1.501,0.653-1.705,1.479c-0.253,1.015,0.336,2.036,1.32,2.343
						c-0.686,0.396-1.219,1.057-1.423,1.885c-0.399,1.614,0.586,3.249,2.201,3.646c0.943,0.234,1.891-0.009,2.598-0.571
						c-0.134,0.857,0.397,1.69,1.255,1.901c0.446,0.11,0.893,0.029,1.261-0.186c-0.07,1.335,0.809,2.572,2.153,2.903
						c1.18,0.292,2.365-0.203,3.019-1.146c0.255,0.227,0.568,0.399,0.921,0.486c1.171,0.289,2.355-0.425,2.645-1.595
						c0.042-0.171,0.061-0.34,0.061-0.507c0.743-0.054,1.396-0.575,1.585-1.333c0.023-0.099,0.038-0.195,0.045-0.292
						c0.008,0.002,0.016,0.006,0.024,0.007c1.054,0.261,2.118-0.38,2.378-1.434c0.124-0.504,0.04-1.009-0.195-1.431
						C151.563,301.417,152.438,300.656,152.701,299.585z"/>
					<path style="fill:#95C11F;" d="M176.781,304.815c0.336-1.358-0.493-2.73-1.851-3.064c-0.027-0.008-0.061-0.012-0.09-0.018
						c0.311-0.268,0.548-0.632,0.656-1.063c0.272-1.101-0.4-2.213-1.501-2.485c-0.164-0.04-0.326-0.057-0.487-0.059
						c0.106-0.197,0.193-0.408,0.25-0.638c0.353-1.432-0.52-2.88-1.951-3.233c-0.914-0.227-1.832,0.049-2.472,0.649
						c-0.115-0.587-0.554-1.084-1.173-1.237c-0.327-0.08-0.656-0.052-0.948,0.061c-0.135-1.137-0.954-2.126-2.13-2.417
						c-1.519-0.376-3.052,0.552-3.428,2.068c-0.107,0.427-0.107,0.852-0.021,1.256c-0.749-0.006-1.434,0.498-1.621,1.256
						c-0.052,0.21-0.061,0.418-0.033,0.619c-0.037-0.012-0.074-0.024-0.112-0.035c-1.357-0.334-2.73,0.495-3.064,1.85
						c-0.245,0.992,0.133,1.989,0.883,2.587c-0.752,0.077-1.411,0.615-1.604,1.39c-0.235,0.954,0.316,1.917,1.241,2.205
						c-0.645,0.37-1.145,0.993-1.338,1.772c-0.374,1.52,0.553,3.054,2.069,3.429c0.889,0.22,1.781-0.008,2.445-0.536
						c-0.128,0.805,0.372,1.588,1.179,1.787c0.419,0.104,0.839,0.029,1.186-0.175c-0.066,1.253,0.762,2.419,2.025,2.73
						c1.11,0.275,2.226-0.189,2.839-1.077c0.24,0.212,0.533,0.373,0.867,0.456c1.101,0.273,2.212-0.398,2.485-1.5
						c0.039-0.16,0.057-0.32,0.058-0.478c0.696-0.049,1.313-0.54,1.489-1.255c0.022-0.09,0.036-0.181,0.043-0.27
						c0.008,0,0.015,0.004,0.022,0.006c0.991,0.244,1.99-0.357,2.235-1.349c0.118-0.475,0.04-0.95-0.183-1.345
						C175.71,306.539,176.532,305.822,176.781,304.815z"/>
				</g>
			</g>
		</g>
		<g>
			<g>
				<g>
					<g>
						<g>
							<g>
								<g>
									<g>
										<g>
											<g>
												<path style="fill:#F5F5F5;" d="M83.069,357.121l0.089-22.857l10.087,0.04c4.475,0.017,7.32,3.298,7.304,7.429
													c-0.016,4.165-2.885,7.149-7.36,7.132l-5.301-0.021l-0.032,8.296L83.069,357.121z M92.446,344.971
													c2.754,0.011,3.895-1.396,3.903-3.393c0.007-1.893-1.123-3.309-3.877-3.32l-4.544-0.018l-0.026,6.713L92.446,344.971z"
													/>
												<path style="fill:#F5F5F5;" d="M104.722,357.205l0.089-22.857l16.799,0.065l-0.016,3.993l-12.152-0.047l-0.019,4.888
													l11.188,0.043l-0.016,4.027l-11.188-0.043l-0.022,5.887l12.703,0.049l-0.016,4.062L104.722,357.205z"/>
												<path style="fill:#F5F5F5;" d="M126.074,346.065c0.03-7.745,4.007-12.378,11.03-12.35
													c7.022,0.027,10.894,4.69,10.864,12.539c-0.031,7.849-3.936,11.895-10.958,11.868
													C129.987,358.094,126.045,353.776,126.074,346.065z M143.252,346.236c0.021-5.405-2.171-8.271-6.165-8.286
													c-4.027-0.016-6.276,2.833-6.297,8.238c-0.021,5.404,2.276,7.823,6.235,7.838
													C140.468,354.039,143.231,351.64,143.252,346.236z"/>
												<path style="fill:#F5F5F5;" d="M152.675,357.391l0.089-22.858l10.086,0.039c4.475,0.018,7.319,3.298,7.303,7.429
													c-0.016,4.165-2.885,7.149-7.359,7.132l-5.301-0.02l-0.032,8.296L152.675,357.391z M162.051,345.241
													c2.754,0.011,3.895-1.396,3.903-3.393c0.007-1.893-1.122-3.309-3.876-3.32l-4.544-0.018l-0.026,6.713L162.051,345.241z"
													/>
												<path style="fill:#F5F5F5;" d="M174.328,357.475l0.089-22.857l4.785,0.019l-0.073,18.692l11.326,0.044l-0.016,4.165
													L174.328,357.475z"/>
												<path style="fill:#F5F5F5;" d="M194.845,357.555l0.089-22.857l16.799,0.065l-0.016,3.993l-12.152-0.047l-0.019,4.888
													l11.188,0.043l-0.016,4.027l-11.188-0.043l-0.022,5.887l12.703,0.049l-0.016,4.062L194.845,357.555z"/>
											</g>
										</g>
										<g>
											
												<rect x="147.601" y="283.093" transform="matrix(0.0039 -1 1 0.0039 -213.0186 508.8881)" style="fill:#F5F5F5;" width="2.653" height="156.553"/>
											
												<rect x="147.725" y="250.447" transform="matrix(0.0026 -1 1 0.0026 -180.0502 476.9336)" style="fill:#F5F5F5;" width="2.655" height="156.551"/>
										</g>
									</g>
								</g>
							</g>
							<g>
								<g>
									<path style="fill:#F5F5F5;" d="M96.666,376.693l-4.855,0.004l-0.003-3.245c-0.001-0.943-0.053-1.532-0.157-1.767
										c-0.104-0.233-0.333-0.351-0.686-0.35c-0.4,0-0.654,0.143-0.761,0.427c-0.107,0.285-0.161,0.9-0.16,1.845l0.007,8.673
										c0.001,0.907,0.055,1.499,0.163,1.776c0.108,0.277,0.35,0.414,0.727,0.414c0.361,0,0.598-0.139,0.708-0.417
										c0.112-0.278,0.167-0.929,0.166-1.954l-0.002-2.347l4.855-0.004l0.001,0.727c0.001,1.933-0.134,3.303-0.406,4.112
										c-0.272,0.809-0.875,1.518-1.808,2.127c-0.934,0.608-2.085,0.913-3.454,0.915c-1.422,0.001-2.595-0.256-3.518-0.77
										c-0.923-0.515-1.535-1.228-1.836-2.138c-0.3-0.911-0.451-2.281-0.453-4.111l-0.004-5.455
										c-0.001-1.345,0.044-2.355,0.136-3.028c0.092-0.673,0.366-1.32,0.823-1.944c0.456-0.623,1.09-1.114,1.901-1.472
										c0.811-0.358,1.743-0.538,2.796-0.539c1.43-0.001,2.61,0.274,3.541,0.826c0.93,0.552,1.542,1.241,1.835,2.066
										c0.293,0.825,0.44,2.109,0.442,3.852L96.666,376.693z"/>
									<path style="fill:#F5F5F5;" d="M116.59,379.479c0.001,1.876-0.042,3.204-0.13,3.984c-0.087,0.78-0.364,1.494-0.829,2.14
										c-0.464,0.647-1.093,1.143-1.884,1.49c-0.792,0.347-1.715,0.521-2.768,0.521c-0.999,0.001-1.897-0.162-2.693-0.488
										c-0.796-0.326-1.437-0.816-1.922-1.469c-0.485-0.653-0.773-1.364-0.867-2.133c-0.093-0.769-0.14-2.114-0.141-4.036
										l-0.003-3.195c-0.001-1.876,0.041-3.204,0.129-3.984c0.088-0.78,0.364-1.494,0.829-2.141
										c0.464-0.645,1.093-1.142,1.884-1.489c0.792-0.346,1.714-0.52,2.768-0.521c1,0,1.897,0.162,2.693,0.488
										c0.796,0.326,1.437,0.816,1.921,1.469c0.485,0.653,0.774,1.364,0.867,2.132c0.093,0.769,0.141,2.115,0.142,4.037
										L116.59,379.479z M111.729,373.347c0-0.869-0.049-1.424-0.146-1.667c-0.096-0.242-0.294-0.363-0.594-0.363
										c-0.253,0-0.448,0.099-0.582,0.295c-0.135,0.196-0.202,0.775-0.201,1.736l0.007,8.719c0.001,1.084,0.046,1.753,0.134,2.006
										c0.089,0.254,0.294,0.38,0.617,0.38c0.331,0,0.543-0.147,0.634-0.439c0.092-0.292,0.138-0.988,0.137-2.087L111.729,373.347
										z"/>
									<path style="fill:#F5F5F5;" d="M136.581,379.462c0.002,1.876-0.042,3.204-0.13,3.984c-0.087,0.78-0.364,1.494-0.829,2.14
										c-0.464,0.647-1.093,1.143-1.884,1.489c-0.792,0.347-1.715,0.52-2.768,0.521c-1,0.001-1.897-0.162-2.693-0.488
										c-0.796-0.326-1.437-0.816-1.922-1.469c-0.485-0.653-0.773-1.364-0.867-2.133c-0.093-0.769-0.14-2.114-0.141-4.036
										l-0.003-3.195c-0.002-1.876,0.041-3.204,0.129-3.984c0.088-0.781,0.364-1.494,0.829-2.141
										c0.464-0.646,1.093-1.143,1.884-1.489c0.792-0.346,1.714-0.52,2.768-0.521c1-0.001,1.897,0.162,2.693,0.488
										c0.796,0.326,1.436,0.816,1.921,1.469c0.485,0.653,0.774,1.364,0.867,2.133c0.093,0.769,0.141,2.115,0.142,4.037
										L136.581,379.462z M131.72,373.331c-0.001-0.869-0.049-1.424-0.146-1.667c-0.096-0.242-0.294-0.363-0.594-0.363
										c-0.253,0-0.448,0.099-0.582,0.295c-0.135,0.196-0.202,0.774-0.201,1.735l0.007,8.719c0.001,1.084,0.046,1.753,0.134,2.007
										c0.089,0.254,0.294,0.38,0.617,0.38c0.331,0,0.542-0.147,0.634-0.439c0.092-0.292,0.138-0.988,0.137-2.087L131.72,373.331z
										"/>
									<path style="fill:#F5F5F5;" d="M157.041,368.512l-2.778,8.432l3.059,10.239l-5.017,0.004l-1.973-8.002l0.007,8.004
										l-4.855,0.004l-0.016-18.671l4.855-0.004l0.006,7.254l2.156-7.256L157.041,368.512z"/>
									<path style="fill:#F5F5F5;" d="M170.083,368.501l0.016,18.671l-4.855,0.004l-0.016-18.671L170.083,368.501z"/>
									<path style="fill:#F5F5F5;" d="M189.958,368.484l0.016,18.671l-4.255,0.003l-2.533-8.486l0.007,8.488l-4.06,0.003
										l-0.016-18.671l4.06-0.003l2.729,8.405l-0.007-8.407L189.958,368.484z"/>
									<path style="fill:#F5F5F5;" d="M210.14,375.341l-4.855,0.004l-0.001-1.695c-0.001-1.069-0.047-1.738-0.14-2.007
										c-0.092-0.269-0.311-0.403-0.657-0.403c-0.3,0-0.504,0.116-0.611,0.347c-0.107,0.23-0.161,0.823-0.16,1.776l0.007,8.961
										c0.001,0.838,0.055,1.389,0.163,1.655c0.108,0.265,0.323,0.397,0.646,0.397c0.354,0,0.594-0.15,0.72-0.45
										c0.127-0.3,0.19-0.884,0.189-1.753l-0.002-2.214l-0.98,0l-0.002-2.837l5.686-0.004l0.008,10.022l-3.051,0.002l-0.45-1.337
										c-0.331,0.577-0.748,1.01-1.251,1.298c-0.504,0.289-1.098,0.434-1.783,0.434c-0.815,0-1.579-0.197-2.292-0.592
										c-0.711-0.395-1.252-0.885-1.623-1.47c-0.37-0.583-0.601-1.196-0.694-1.838c-0.093-0.642-0.14-1.605-0.141-2.889
										l-0.005-5.547c-0.001-1.784,0.093-3.08,0.285-3.887c0.191-0.807,0.742-1.548,1.653-2.221
										c0.911-0.673,2.088-1.011,3.534-1.012c1.422-0.001,2.603,0.29,3.542,0.873c0.938,0.583,1.55,1.277,1.835,2.08
										c0.286,0.803,0.429,1.97,0.43,3.5L210.14,375.341z"/>
								</g>
							</g>
						</g>
					</g>
				</g>
			</g>
		</g>
	</g>
	<g>
		<polygon style="fill:#DADADA;" points="214.391,269.289 205.853,280.629 179.51,261.758 179.503,239.37 		"/>
		<g>
			<path style="fill:#FAC290;" d="M176.716,308.916l1.465-1.48l-5.863-7.089l-1.552,1.337c-2.293-1.642-3.862,0.893-7.092,0.88
				c-1.101-0.098-2.265,0.101-2.873,0.046c-0.895-0.176-1.71-0.33-2.231-0.409c-1.027-0.156-3.193-0.47-3.193-0.47
				c-0.306,1.175-0.593,2.873,2.486,3.563c0.495,0.109,1.273,0.296,2.053,0.484c0.011,0.007,0.029,0.012,0.048,0.02
				c1.718,0.655,0.709,1.776,0.297,2.148l-10.049,6.797c-0.684,0.454-0.847,1.358-0.392,2.042c0.455,0.683,1.424,0.831,2.107,0.38
				l9.11-6.071c0.138-0.08,0.666-0.404,0.799-0.233l0.076,0.092c0.131,0.169-0.25,0.536-0.408,0.674l-9.454,7.646
				c-0.637,0.514-0.737,1.452-0.222,2.087c0.516,0.64,1.453,0.737,2.09,0.221l8.925-7.217c0.21-0.147,0.653-0.377,0.939-0.033
				c0.199,0.245-0.078,0.632-0.276,0.857l-7.176,7.071c-0.583,0.577-0.592,1.52-0.015,2.102c0.577,0.585,1.516,0.593,2.101,0.013
				l6.839-6.741c0.184-0.162,0.596-0.46,0.844-0.193c0.327,0.359-0.212,0.929-0.212,0.929l0.023-0.01l-2.839,3.778
				c-0.459,0.61-0.339,1.475,0.268,1.935c0.61,0.461,1.563,0.272,2.022-0.335l3.158-4.153c0.659-0.61,4.723-4.347,7.323-6.855
				c0.639-0.62,2.148-2.184,1.139-3.47L176.716,308.916z"/>
			<polygon style="fill:#DADADA;" points="207.261,263.173 217.605,271.889 177.723,308.84 170.553,300.346 			"/>
		</g>
		<polygon style="fill:#DADADA;" points="83.587,269.289 92.127,280.629 118.467,261.758 118.476,239.37 		"/>
		<g>
			<path style="fill:#FAC290;" d="M121.263,308.916l-1.466-1.48l5.862-7.089l1.553,1.337c2.293-1.642,3.862,0.893,7.093,0.88
				c1.1-0.098,2.264,0.101,2.873,0.046c0.896-0.176,1.708-0.33,2.23-0.409c1.028-0.156,3.192-0.47,3.192-0.47
				c0.307,1.175,0.594,2.873-2.484,3.563c-0.495,0.109-1.275,0.296-2.056,0.484c-0.01,0.007-0.027,0.012-0.044,0.02
				c-1.72,0.655-0.71,1.776-0.3,2.148l10.051,6.797c0.682,0.454,0.847,1.358,0.391,2.042c-0.455,0.683-1.424,0.831-2.106,0.38
				l-9.111-6.071c-0.136-0.08-0.667-0.404-0.8-0.233l-0.073,0.092c-0.133,0.169,0.249,0.536,0.406,0.674l9.455,7.646
				c0.635,0.514,0.737,1.452,0.221,2.087c-0.519,0.64-1.452,0.737-2.091,0.221l-8.923-7.217c-0.211-0.147-0.654-0.377-0.94-0.033
				c-0.2,0.245,0.078,0.632,0.277,0.857l7.175,7.071c0.585,0.577,0.591,1.52,0.015,2.102c-0.575,0.585-1.517,0.593-2.1,0.013
				l-6.842-6.741c-0.184-0.162-0.596-0.46-0.844-0.193c-0.327,0.359,0.212,0.929,0.212,0.929l-0.023-0.01l2.839,3.778
				c0.461,0.61,0.338,1.475-0.269,1.935c-0.608,0.461-1.561,0.272-2.022-0.335l-3.156-4.153c-0.661-0.61-4.725-4.347-7.324-6.855
				c-0.639-0.62-2.149-2.184-1.139-3.47L121.263,308.916z"/>
			<polygon style="fill:#DADADA;" points="90.718,263.173 80.374,271.889 120.255,308.84 127.425,300.346 			"/>
		</g>
	</g>
</g>
</svg>
